<?xml version="1.0" standalone="no"?>
<!DOCTYPE svg PUBLIC "-//W3C//DTD SVG 20010904//EN"
 "http://www.w3.org/TR/2001/REC-SVG-20010904/DTD/svg10.dtd">
<svg version="1.0" xmlns="http://www.w3.org/2000/svg"
 width="512.000000pt" height="512.000000pt" viewBox="0 0 512.000000 512.000000"
 preserveAspectRatio="xMidYMid meet">

<g transform="translate(0.000000,512.000000) scale(0.100000,-0.100000)"
fill="#000000" stroke="none">
<path d="M2519 5073 c-8 -10 -20 -29 -26 -43 -30 -67 -56 -119 -83 -165 -16
-27 -48 -88 -70 -135 -23 -47 -45 -92 -50 -100 -5 -8 -23 -43 -40 -78 -17 -35
-44 -84 -61 -110 -16 -25 -29 -53 -29 -61 -1 -34 -36 -63 -82 -68 -48 -6 -92
12 -212 82 -32 20 -69 38 -82 41 -13 3 -28 12 -35 20 -15 18 -53 18 -69 -1
-10 -12 -10 -28 0 -78 6 -34 16 -87 22 -117 5 -30 13 -71 18 -90 5 -19 16 -87
25 -150 9 -63 21 -131 25 -150 5 -19 12 -62 16 -95 4 -33 10 -64 14 -70 7 -9
21 -86 34 -180 2 -16 13 -82 24 -145 28 -159 29 -183 9 -214 -35 -53 -85 -30
-189 90 -42 49 -86 99 -97 112 -12 12 -21 26 -21 31 0 4 -10 17 -22 29 -13 12
-39 41 -59 64 -20 24 -63 72 -95 108 -33 36 -76 86 -96 110 -36 44 -37 45 -64
30 -20 -11 -30 -28 -41 -70 -7 -30 -18 -64 -23 -75 -6 -11 -18 -51 -28 -89
-15 -63 -20 -71 -47 -78 -26 -7 -147 6 -165 17 -12 8 -155 35 -182 35 -15 0
-29 4 -32 9 -3 5 -23 11 -43 14 -21 3 -72 12 -113 21 -143 30 -159 22 -135
-75 9 -35 25 -93 36 -129 10 -36 28 -103 39 -150 11 -47 28 -110 37 -140 42
-145 66 -271 55 -293 -10 -22 -46 -43 -159 -92 -34 -15 -69 -36 -79 -46 -23
-26 -12 -61 32 -94 31 -24 58 -48 129 -116 12 -10 23 -19 27 -19 3 0 25 -18
49 -41 60 -55 207 -169 219 -169 6 0 10 -6 10 -14 0 -8 14 -25 30 -38 56 -43
163 -133 229 -192 36 -32 79 -67 94 -76 15 -10 59 -46 97 -81 39 -35 90 -81
114 -102 57 -49 68 -104 37 -188 -12 -30 -25 -75 -31 -99 -5 -25 -15 -69 -22
-98 -18 -78 -9 -87 83 -86 75 1 228 16 354 35 39 6 106 14 150 18 44 4 174 18
288 31 188 22 211 23 235 9 20 -11 26 -22 25 -39 -6 -61 -44 -962 -45 -1082
-2 -108 5 -118 81 -118 132 0 129 -11 120 384 -4 175 -10 437 -14 582 l-7 263
25 12 c19 9 55 9 149 0 67 -7 142 -14 165 -16 24 -2 46 -6 51 -9 4 -2 48 -8
97 -11 50 -4 93 -9 96 -11 4 -2 89 -13 190 -24 101 -11 207 -24 234 -29 64
-12 102 -4 121 24 17 26 13 48 -31 180 -32 96 -47 175 -37 189 5 6 12 24 16
40 7 28 41 65 61 66 6 0 31 20 55 45 24 25 50 45 56 45 7 0 23 13 36 30 13 16
48 48 78 72 31 24 85 68 120 100 36 31 103 89 149 130 46 40 109 92 139 115
30 23 67 54 82 70 15 15 44 42 65 58 37 29 89 73 195 164 28 24 50 50 48 59
-3 16 -85 80 -104 81 -7 1 -45 18 -85 39 -73 38 -74 39 -73 78 2 40 18 113 33
149 5 11 23 83 41 160 18 77 41 165 50 196 10 31 23 82 30 115 6 32 16 67 21
76 14 28 11 53 -11 73 -18 16 -25 17 -68 6 -26 -7 -78 -19 -115 -27 -38 -7
-74 -17 -80 -21 -6 -4 -34 -10 -62 -14 -27 -5 -104 -19 -170 -33 -134 -28
-187 -26 -203 8 -6 11 -22 68 -36 125 -28 111 -42 135 -83 146 -29 7 -69 -24
-108 -85 -12 -19 -66 -81 -119 -137 -54 -57 -108 -116 -119 -132 -61 -83 -161
-196 -188 -213 -43 -26 -83 -16 -100 24 -14 33 -1 157 27 268 7 30 30 147 49
260 19 113 40 228 45 255 49 258 80 434 80 451 0 11 -9 29 -21 39 -20 19 -21
18 -87 -14 -37 -18 -74 -37 -82 -42 -32 -20 -156 -78 -182 -84 -46 -12 -93 11
-111 53 -9 20 -21 44 -26 52 -6 8 -40 77 -76 152 -37 75 -73 142 -81 149 -8 6
-14 16 -14 22 0 10 -69 159 -91 197 -5 8 -15 29 -23 45 -18 39 -80 105 -98
105 -8 0 -21 -8 -29 -17z"/>
</g>
</svg>
