<svg xmlns="http://www.w3.org/2000/svg" width="512" height="512" viewBox="0 0 512 512" version="1.1"><path d="M 257 10.209 C 257 11.066, 257.900 12.002, 259 12.290 C 260.302 12.630, 261.044 13.718, 261.125 15.406 C 261.313 19.314, 261.423 19.763, 262.410 20.667 C 262.939 21.151, 263.019 20.976, 262.601 20.250 C 262.206 19.563, 262.326 19, 262.868 19 C 263.410 19, 264.059 19.788, 264.311 20.750 C 264.697 22.226, 264.786 22.246, 264.884 20.872 C 264.948 19.977, 264.325 18.685, 263.500 18 C 262.675 17.315, 262 15.989, 262 15.052 C 262 14.115, 260.875 12.292, 259.500 11 C 257.575 9.192, 257 9.010, 257 10.209 M 251.667 10.667 C 251.300 11.033, 251.029 12.271, 251.063 13.417 C 251.122 15.332, 251.204 15.307, 252.085 13.105 C 253.064 10.657, 252.861 9.472, 251.667 10.667 M 245.592 23.500 C 244.691 24.875, 244.342 26, 244.816 26 C 245.291 26, 246.192 24.875, 246.818 23.500 C 247.445 22.125, 247.794 21, 247.594 21 C 247.394 21, 246.493 22.125, 245.592 23.500 M 265 23.618 C 265 24.168, 265.661 25.491, 266.468 26.559 C 267.276 27.626, 267.936 28.050, 267.936 27.500 C 267.936 26.950, 267.276 25.626, 266.468 24.559 C 265.661 23.491, 265 23.068, 265 23.618 M 269.006 31.628 C 269.003 32.798, 269.675 34.315, 270.500 35 C 272.389 36.567, 272.390 35.976, 270.506 32.364 C 269.211 29.882, 269.012 29.784, 269.006 31.628 M 241 38.500 C 241 39.325, 241.450 40, 242 40 C 242.550 40, 243 39.325, 243 38.500 C 243 37.675, 242.550 37, 242 37 C 241.450 37, 241 37.675, 241 38.500 M 234.390 44.608 C 233.561 46.593, 233.124 48.457, 233.418 48.751 C 233.712 49.045, 234.225 48.434, 234.558 47.393 C 234.891 46.352, 235.566 44.487, 236.060 43.250 C 236.553 42.013, 236.719 41, 236.428 41 C 236.136 41, 235.220 42.624, 234.390 44.608 M 236.807 54.137 C 237.188 56.735, 237.430 56.982, 238.217 55.576 C 239.233 53.761, 238.622 51, 237.205 51 C 236.733 51, 236.554 52.412, 236.807 54.137 M 228.458 56.424 C 226.807 59.928, 226.719 60.568, 227.998 59.769 C 229.541 58.806, 232.293 51.955, 231.101 52.046 C 230.770 52.071, 229.581 54.041, 228.458 56.424 M 221.114 70.011 C 219.881 72.205, 219.081 74, 219.337 74 C 220.014 74, 224.148 66.815, 223.718 66.385 C 223.519 66.186, 222.347 67.817, 221.114 70.011 M 170.170 69 C 170.186 69.825, 170.560 71.625, 171 73 C 171.644 75.010, 171.806 75.108, 171.830 73.500 C 171.846 72.400, 171.473 70.600, 171 69.500 C 170.473 68.275, 170.152 68.081, 170.170 69 M 224.605 69.588 C 223.750 71.816, 223.818 72, 225.500 72 C 226.325 72, 227 71.352, 227 70.559 C 227 68.443, 225.307 67.757, 224.605 69.588 M 336.987 69.552 C 335.619 70.310, 334.950 70.938, 335.500 70.949 C 336.050 70.960, 337.175 70.539, 338 70.012 C 339.169 69.267, 339.639 69.656, 340.132 71.778 L 340.763 74.500 340.882 71.809 C 341.033 68.377, 340.094 67.833, 336.987 69.552 M 288.631 72.520 C 288.292 73.404, 287.561 73.847, 287.007 73.504 C 286.453 73.162, 286 73.584, 286 74.441 C 286 76.741, 288.758 76.337, 289.524 73.925 C 290.309 71.452, 289.518 70.208, 288.631 72.520 M 179.275 74 C 179.111 76.177, 179.488 76.294, 182.500 75 C 184.210 74.265, 184.246 74.130, 182.750 74.070 C 181.787 74.032, 181 73.550, 181 73 C 181 71.096, 179.425 72.009, 179.275 74 M 185.507 76.011 C 185.843 76.555, 186.582 77, 187.149 77 C 187.716 77, 188.927 77.906, 189.840 79.014 C 190.753 80.121, 192.963 81.440, 194.750 81.944 C 199.090 83.168, 198.876 82.393, 194.352 80.503 C 192.346 79.665, 190.209 78.371, 189.602 77.629 C 188.282 76.013, 184.612 74.563, 185.507 76.011 M 218 77.500 C 217.315 78.325, 217.148 79.007, 217.628 79.015 C 218.107 79.024, 217.825 79.467, 217 80 C 215.861 80.736, 215.823 80.973, 216.844 80.985 C 217.583 80.993, 218.421 80.105, 218.707 79.011 C 218.993 77.917, 219.696 77.312, 220.268 77.666 C 220.872 78.039, 221.010 77.825, 220.595 77.155 C 219.680 75.673, 219.496 75.697, 218 77.500 M 327 77.941 C 327 79.009, 327.450 80.160, 328 80.500 C 328.567 80.851, 329 80.010, 329 78.559 C 329 77.152, 328.550 76, 328 76 C 327.450 76, 327 76.873, 327 77.941 M 338.645 78.675 C 337.619 82.154, 336.780 88, 337.306 88 C 337.992 88, 340.176 77.843, 339.612 77.279 C 339.376 77.043, 338.941 77.671, 338.645 78.675 M 172.610 82.500 C 173.433 86.177, 174.005 86.975, 173.985 84.417 C 173.976 83.362, 173.513 81.825, 172.954 81 C 172.213 79.905, 172.120 80.309, 172.610 82.500 M 313 81.583 C 310.656 82.884, 310.633 82.971, 312.628 82.985 C 313.798 82.993, 315.315 82.325, 316 81.500 C 317.508 79.683, 316.367 79.715, 313 81.583 M 298 83.415 C 299.925 84.203, 302.850 84.830, 304.500 84.809 C 307.417 84.771, 307.403 84.749, 304 84.026 C 302.075 83.617, 299.150 82.989, 297.500 82.632 C 294.768 82.040, 294.812 82.110, 298 83.415 M 206 84 L 201.500 84.700 205.500 84.834 C 207.700 84.909, 210.175 84.533, 211 84 C 211.825 83.467, 212.050 83.091, 211.500 83.166 C 210.950 83.240, 208.475 83.615, 206 84 M 197.639 86.694 C 196.513 87.820, 196.954 89, 198.500 89 C 199.325 89, 200 88.577, 200 88.059 C 200 86.798, 198.438 85.895, 197.639 86.694 M 307.500 87.922 C 305.562 88.680, 305.569 88.726, 307.741 89.417 C 310.108 90.169, 312 89.513, 312 87.941 C 312 86.836, 310.298 86.829, 307.500 87.922 M 332.526 89.950 C 330.775 93.335, 330.544 96, 332 96 C 332.550 96, 333 94.848, 333 93.441 C 333 91.990, 333.433 91.149, 334 91.500 C 334.567 91.851, 335 91.010, 335 89.559 C 335 86.234, 334.398 86.329, 332.526 89.950 M 174.115 90 C 174.069 91.375, 174.467 93.175, 175 94 C 175.862 95.333, 175.960 95.333, 175.885 94 C 175.839 93.175, 175.440 91.375, 175 90 L 174.199 87.500 174.115 90 M 325 99 C 325 100.100, 325.450 101, 326 101 C 326.550 101, 327 100.100, 327 99 C 327 97.900, 326.550 97, 326 97 C 325.450 97, 325 97.900, 325 99 M 332 113.441 C 332 116.505, 332.570 116.753, 333.289 114.001 C 333.577 112.902, 333.404 111.750, 332.906 111.442 C 332.408 111.134, 332 112.034, 332 113.441 M 329.704 127.643 C 328.767 132.672, 328.038 137.622, 328.084 138.643 C 328.131 139.664, 329.033 136.225, 330.089 131 C 331.145 125.775, 331.874 120.825, 331.709 120 C 331.544 119.175, 330.642 122.614, 329.704 127.643 M 182.070 137.191 C 182.032 138.671, 182.450 140.160, 183 140.500 C 183.550 140.840, 184.061 142.329, 184.136 143.809 C 184.235 145.764, 184.382 145.953, 184.672 144.500 C 184.891 143.400, 184.412 140.700, 183.606 138.500 C 182.310 134.962, 182.133 134.811, 182.070 137.191 M 121.217 146.322 C 120.548 149.202, 120 152.359, 120 153.338 C 120 154.429, 119.553 154.842, 118.845 154.405 C 118.130 153.962, 117.962 154.130, 118.405 154.845 C 119.714 156.964, 121 156.034, 121 152.968 C 121 151.300, 121.627 148.436, 122.393 146.603 C 123.158 144.770, 123.481 142.779, 123.110 142.178 C 122.739 141.577, 121.887 143.442, 121.217 146.322 M 383.634 143.852 C 382.735 144.845, 382 146.028, 382 146.482 C 382 146.935, 382.831 146.348, 383.847 145.176 L 385.695 143.046 387.716 145.273 C 388.828 146.498, 390.077 148.850, 390.492 150.500 C 390.907 152.150, 391.424 153.027, 391.640 152.450 C 392.192 150.976, 389.491 143.503, 388.399 143.485 C 387.905 143.476, 386.998 143.149, 386.384 142.758 C 385.770 142.367, 384.532 142.859, 383.634 143.852 M 326.624 144.539 C 326.281 145.432, 326.052 147.364, 326.115 148.832 C 326.201 150.830, 326.426 150.496, 327.010 147.500 C 327.838 143.249, 327.655 141.850, 326.624 144.539 M 188 146.802 C 188 147.426, 187.338 147.683, 186.529 147.373 C 185.287 146.896, 185.154 147.875, 185.676 153.654 C 186.017 157.419, 186.608 161.373, 186.990 162.440 C 187.941 165.096, 187.518 153.094, 186.555 150.125 C 186.050 148.566, 186.142 147.970, 186.824 148.391 C 187.975 149.103, 189.551 147.218, 188.600 146.267 C 188.270 145.937, 188 146.178, 188 146.802 M 384.094 149.387 C 383.276 150.372, 383.234 151.026, 383.959 151.474 C 384.539 151.833, 385.292 151.404, 385.631 150.520 C 386.475 148.320, 385.547 147.636, 384.094 149.387 M 125 150.500 C 125 151.325, 125.450 152, 126 152 C 126.550 152, 127 151.325, 127 150.500 C 127 149.675, 126.550 149, 126 149 C 125.450 149, 125 149.675, 125 150.500 M 138 156.826 C 138 157.280, 139.196 158.742, 140.658 160.076 L 143.317 162.500 140.970 159.250 C 138.530 155.869, 138 155.437, 138 156.826 M 324 159.500 C 324 161.425, 324.176 163, 324.391 163 C 324.605 163, 324.965 161.425, 325.190 159.500 C 325.415 157.575, 325.239 156, 324.799 156 C 324.360 156, 324 157.575, 324 159.500 M 116.881 159.781 C 116.552 161.769, 116.698 162.702, 117.253 162.147 C 117.757 161.643, 118.002 160.166, 117.797 158.865 C 117.482 156.864, 117.342 157.004, 116.881 159.781 M 392 158.750 C 392 159.227, 392.653 160.491, 393.450 161.559 C 394.849 163.432, 394.880 163.420, 394.330 161.234 C 393.761 158.977, 392 157.099, 392 158.750 M 462.267 160.704 C 460.648 161.016, 460.123 161.721, 460.358 163.265 C 460.810 166.226, 462.776 166.606, 463.173 163.808 C 463.406 162.166, 464.135 161.521, 465.700 161.574 C 466.910 161.615, 467.671 161.277, 467.391 160.824 C 466.868 159.977, 466.122 159.959, 462.267 160.704 M 44.516 164.455 C 44.834 165.530, 45.371 168.424, 45.708 170.886 C 46.227 174.672, 46.449 175.020, 47.144 173.141 C 47.596 171.918, 47.570 170.149, 47.086 169.209 C 46.602 168.269, 45.695 166.375, 45.072 165 C 44.448 163.625, 44.198 163.380, 44.516 164.455 M 449.500 164 C 446.732 164.704, 446.694 164.771, 449 164.866 C 450.375 164.923, 452.175 164.533, 453 164 C 454.702 162.900, 453.822 162.900, 449.500 164 M 65 165.707 C 66.375 165.946, 68.050 166.853, 68.722 167.723 C 69.718 169.013, 70.551 169.111, 73.222 168.255 L 76.500 167.204 73.309 167.102 C 71.554 167.046, 69.840 166.550, 69.500 166 C 69.160 165.450, 67.446 165.061, 65.691 165.136 C 62.990 165.251, 62.884 165.339, 65 165.707 M 137 166.417 C 137 167.287, 137.713 168, 138.583 168 C 140.349 168, 140.042 165.847, 138.188 165.229 C 137.534 165.011, 137 165.546, 137 166.417 M 321.642 167.424 C 320.377 169.355, 320.212 170.758, 320.906 173.705 L 321.799 177.500 321.900 174.315 C 321.955 172.563, 322.463 169.913, 323.028 168.426 C 324.390 164.843, 323.673 164.324, 321.642 167.424 M 453.639 165.694 C 452.513 166.820, 452.954 168, 454.500 168 C 455.325 168, 456 167.577, 456 167.059 C 456 165.798, 454.438 164.895, 453.639 165.694 M 191 169 C 191 170.650, 191.450 172, 192 172 C 192.550 172, 193 172.900, 193 174 C 193 175.100, 193.450 176, 194 176 C 194.550 176, 195 175.100, 195 174 C 195 172.900, 194.550 172, 194 172 C 193.450 172, 193 170.650, 193 169 C 193 167.350, 192.550 166, 192 166 C 191.450 166, 191 167.350, 191 169 M 113.551 169.944 C 112.583 171.013, 110.826 172.077, 109.646 172.308 C 107.554 172.717, 107.552 172.731, 109.576 172.864 C 110.717 172.939, 112.708 171.875, 114 170.500 C 115.292 169.125, 116.115 168, 115.829 168 C 115.544 168, 114.518 168.875, 113.551 169.944 M 147.624 169.539 C 147.281 170.432, 147 171.255, 147 171.368 C 147 171.480, 147.875 171.571, 148.945 171.571 C 150.531 171.571, 150.675 171.288, 149.728 170.036 C 149.089 169.191, 148.494 168.368, 148.407 168.207 C 148.319 168.046, 147.966 168.645, 147.624 169.539 M 359.250 171.619 C 356.157 175.014, 354.863 177.821, 357 176.500 C 357.550 176.160, 358 175.452, 358 174.927 C 358 174.402, 359.462 172.641, 361.250 171.015 C 363.038 169.389, 364.050 168.057, 363.500 168.055 C 362.950 168.054, 361.038 169.657, 359.250 171.619 M 442.500 169 C 442.840 169.550, 444.441 170, 446.059 170 C 447.677 170, 449 169.550, 449 169 C 449 168.450, 447.398 168, 445.441 168 C 443.323 168, 442.132 168.405, 442.500 169 M 461 169.941 C 461 171.073, 461.450 172, 462 172 C 462.550 172, 463 171.352, 463 170.559 C 463 169.766, 462.550 168.840, 462 168.500 C 461.450 168.160, 461 168.809, 461 169.941 M 87 170.158 C 93.432 171.911, 95.542 172.097, 91.500 170.556 C 89.300 169.717, 86.600 169.069, 85.500 169.117 C 84.364 169.167, 85.013 169.617, 87 170.158 M 151.818 174.176 C 151.411 176.305, 151.673 176.825, 153.102 176.717 C 154.192 176.635, 154.578 176.173, 154.083 175.541 C 153.635 174.968, 153.058 173.825, 152.800 173 C 152.508 172.066, 152.137 172.510, 151.818 174.176 M 462.240 177.750 C 462.304 178.713, 461.781 181.218, 461.078 183.317 C 460.376 185.416, 460.026 187.359, 460.301 187.634 C 460.859 188.192, 462.675 182.982, 463.398 178.750 C 463.656 177.238, 463.475 176, 462.996 176 C 462.517 176, 462.176 176.787, 462.240 177.750 M 190.218 180 C 190.208 181.375, 190.560 183.625, 191 185 C 191.627 186.959, 191.797 187.067, 191.782 185.500 C 191.772 184.400, 191.420 182.150, 191 180.500 C 190.314 177.805, 190.235 177.754, 190.218 180 M 160.275 186 C 160.192 187.100, 160.546 188, 161.062 188 C 161.578 188, 162 187.100, 162 186 C 162 184.900, 161.646 184, 161.213 184 C 160.780 184, 160.358 184.900, 160.275 186 M 315 186 C 315 187.867, 315.267 188.133, 316.200 187.200 C 317.133 186.267, 317.133 185.733, 316.200 184.800 C 315.267 183.867, 315 184.133, 315 186 M 345.823 188.295 C 344.586 190.058, 343.085 191.950, 342.488 192.500 C 341.890 193.050, 340.790 194.400, 340.043 195.500 C 339.296 196.600, 340.839 195.250, 343.472 192.500 C 346.105 189.750, 348.876 187.632, 349.630 187.794 C 351.468 188.188, 351.388 186.363, 349.536 185.652 C 348.626 185.303, 347.221 186.302, 345.823 188.295 M 319.118 189.559 C 319.049 191.922, 319.658 194.429, 320.574 195.559 C 321.440 196.626, 321.849 196.915, 321.484 196.200 C 321.119 195.485, 320.463 192.785, 320.028 190.200 L 319.235 185.500 319.118 189.559 M 52.645 197 C 53.436 201.313, 54.005 202.126, 53.985 198.917 C 53.976 197.588, 53.527 195.825, 52.986 195 C 52.294 193.945, 52.193 194.538, 52.645 197 M 165.469 195.050 C 164.519 196.588, 165.820 197.580, 167.104 196.296 C 167.822 195.578, 167.839 195.019, 167.156 194.597 C 166.596 194.251, 165.837 194.455, 165.469 195.050 M 189.149 197.012 C 187.934 198.656, 187.291 199.986, 187.720 199.969 C 188.717 199.928, 192.335 195.002, 191.777 194.444 C 191.547 194.213, 190.364 195.369, 189.149 197.012 M 457.595 196.928 C 457.268 198.618, 456.739 201.350, 456.421 203 C 456.102 204.650, 456.070 206, 456.350 206 C 457.067 206, 459.281 194.947, 458.683 194.349 C 458.412 194.078, 457.922 195.239, 457.595 196.928 M 323.140 200.408 C 323.942 202.167, 324.815 202.554, 327.326 202.261 C 333.103 201.588, 335 200.975, 335 199.781 C 335 198.884, 334.712 198.888, 333.800 199.800 C 332.195 201.405, 328.114 201.308, 324.813 199.586 C 322.213 198.229, 322.159 198.256, 323.140 200.408 M 315.500 202 C 315.160 202.550, 315.021 203.034, 315.191 203.077 C 318.070 203.789, 318.796 203.633, 318.324 202.401 C 317.695 200.763, 316.380 200.576, 315.500 202 M 54.520 205.033 C 54.960 205.744, 55.668 207.715, 56.095 209.413 C 56.832 212.342, 56.862 212.299, 56.686 208.577 C 56.576 206.250, 55.935 204.469, 55.111 204.198 C 54.182 203.892, 53.986 204.169, 54.520 205.033 M 65 205.500 C 65 206.325, 65.450 207, 66 207 C 66.550 207, 67 206.325, 67 205.500 C 67 204.675, 66.550 204, 66 204 C 65.450 204, 65 204.675, 65 205.500 M 454.684 208.382 C 454.308 209.362, 454.029 210.914, 454.063 211.832 C 454.105 212.937, 454.453 212.685, 455.092 211.086 C 455.623 209.758, 455.902 208.206, 455.712 207.636 C 455.522 207.067, 455.059 207.403, 454.684 208.382 M 61 213 C 61 214.650, 61.450 216, 62 216 C 62.550 216, 63 214.650, 63 213 C 63 211.350, 62.550 210, 62 210 C 61.450 210, 61 211.350, 61 213 M 452.881 216.781 C 452.552 218.769, 452.698 219.702, 453.253 219.147 C 453.757 218.643, 454.002 217.166, 453.797 215.865 C 453.482 213.864, 453.342 214.004, 452.881 216.781 M 67 219 C 67 220.100, 67.450 221, 68 221 C 68.550 221, 69 220.100, 69 219 C 69 217.900, 68.550 217, 68 217 C 67.450 217, 67 217.900, 67 219 M 60.656 227.500 C 60.991 229.700, 61.431 231.688, 61.633 231.917 C 62.390 232.776, 61.823 227.420, 60.953 225.500 C 60.322 224.106, 60.232 224.712, 60.656 227.500 M 65 234 C 65 235.100, 65.450 236, 66 236 C 66.550 236, 67 235.100, 67 234 C 67 232.900, 66.550 232, 66 232 C 65.450 232, 65 232.900, 65 234 M 444.682 232.652 C 443.469 233.864, 443.958 235.667, 445.500 235.667 C 447.183 235.667, 447.342 235.086, 446.166 233.235 C 445.725 232.539, 445.057 232.277, 444.682 232.652 M 61.477 238.158 C 60.895 240.124, 59.127 242.375, 57.102 243.729 C 53.152 246.369, 53.848 246.794, 58.053 244.309 C 60.925 242.613, 63.525 238.076, 62.827 235.981 C 62.621 235.364, 62.014 236.344, 61.477 238.158 M 452.425 243.879 C 452.724 244.363, 453.988 245.016, 455.234 245.330 C 457.420 245.880, 457.432 245.849, 455.559 244.450 C 453.409 242.844, 451.580 242.511, 452.425 243.879 M 42.250 250.958 C 38.813 252.585, 36.007 254.497, 36.015 255.208 C 36.025 256.001, 36.315 256.114, 36.768 255.500 C 37.864 254.014, 45.659 250, 47.448 250 C 48.302 250, 49 249.550, 49 249 C 49 247.691, 49.407 247.573, 42.250 250.958 M 447.543 249.931 C 446.803 251.128, 448.684 252.313, 450.016 251.490 C 451.135 250.799, 450.400 249, 449 249 C 448.515 249, 447.859 249.419, 447.543 249.931 M 50 251 C 50 251.550, 50.927 252, 52.059 252 C 53.191 252, 53.840 251.550, 53.500 251 C 53.160 250.450, 52.234 250, 51.441 250 C 50.648 250, 50 250.450, 50 251 M 46.229 257.188 C 46.847 259.042, 49 259.349, 49 257.583 C 49 256.712, 48.288 256, 47.417 256 C 46.546 256, 46.011 256.534, 46.229 257.188 M 42 260.236 C 42 260.572, 43.350 262.196, 45 263.846 C 46.650 265.496, 48 266.515, 48 266.110 C 48 265.705, 46.650 264.081, 45 262.500 C 43.350 260.919, 42 259.900, 42 260.236 M 458.102 269.586 C 456.233 270.914, 455.196 272, 455.796 272 C 456.397 272, 458.151 270.889, 459.694 269.532 C 463.228 266.423, 462.520 266.447, 458.102 269.586 M 441 269.500 C 441 270.333, 441.889 271, 443 271 C 444.111 271, 445 270.333, 445 269.500 C 445 268.667, 444.111 268, 443 268 C 441.889 268, 441 268.667, 441 269.500 M 452 269 C 452 269.550, 452.675 270, 453.500 270 C 454.325 270, 455 269.550, 455 269 C 455 268.450, 454.325 268, 453.500 268 C 452.675 268, 452 268.450, 452 269 M 450.029 275.961 C 449.220 276.473, 448.803 277.136, 449.102 277.435 C 449.401 277.735, 450.513 277.323, 451.573 276.521 C 453.681 274.926, 452.400 274.461, 450.029 275.961 M 445.250 279.662 C 444.563 279.940, 444 280.642, 444 281.223 C 444 281.804, 443.212 282.893, 442.250 283.642 C 440.681 284.864, 440.675 284.944, 442.190 284.418 C 443.489 283.968, 447.986 278.728, 446.773 279.079 C 446.623 279.122, 445.938 279.385, 445.250 279.662 M 79 288 C 79 289.289, 79.506 289.998, 80.250 289.750 C 80.938 289.521, 81.500 288.733, 81.500 288 C 81.500 287.267, 80.938 286.479, 80.250 286.250 C 79.506 286.002, 79 286.711, 79 288 M 425 289.622 C 425 290.951, 425.271 291.020, 426.500 290 C 427.325 289.315, 428 288.585, 428 288.378 C 428 288.170, 427.325 288, 426.500 288 C 425.675 288, 425 288.730, 425 289.622 M 84.190 296.914 C 84.421 297.692, 85.710 299.015, 87.055 299.853 C 88.950 301.034, 89.163 301.053, 88 299.938 C 87.175 299.147, 85.886 297.825, 85.135 297 C 84.036 295.792, 83.852 295.776, 84.190 296.914 M 419.489 302.575 C 417.295 304.541, 416.400 305.708, 417.500 305.167 C 419.394 304.236, 424.839 299, 423.913 299 C 423.674 299, 421.683 300.609, 419.489 302.575 M 409.459 304.067 C 409.096 304.653, 409.040 305.373, 409.333 305.667 C 410.050 306.383, 412 305.121, 412 303.941 C 412 302.663, 410.274 302.748, 409.459 304.067 M 402.835 316.673 C 401.919 316.915, 400.921 317.765, 400.615 318.560 C 400.164 319.736, 400.522 319.704, 402.530 318.388 C 403.889 317.498, 405 316.597, 405 316.385 C 405 316.173, 404.887 316.052, 404.750 316.116 C 404.613 316.180, 403.751 316.430, 402.835 316.673 M 393 319.500 C 393 320.325, 393.450 321, 394 321 C 394.550 321, 395 320.325, 395 319.500 C 395 318.675, 394.550 318, 394 318 C 393.450 318, 393 318.675, 393 319.500 M 114.405 322.854 C 116.521 325.238, 117 325.456, 117 324.035 C 117 323.505, 115.987 322.539, 114.750 321.890 C 112.512 320.715, 112.510 320.720, 114.405 322.854 M 122.652 329.413 C 124.218 331.291, 126.175 333.117, 127 333.472 C 127.825 333.827, 126.721 332.291, 124.547 330.059 C 119.726 325.108, 118.794 324.791, 122.652 329.413 M 377.500 333 C 377.160 333.550, 377.809 334, 378.941 334 C 380.073 334, 381 333.550, 381 333 C 381 332.450, 380.352 332, 379.559 332 C 378.766 332, 377.840 332.450, 377.500 333 M 138 336.417 C 138 337.288, 138.713 338, 139.583 338 C 141.349 338, 141.042 335.847, 139.188 335.229 C 138.534 335.011, 138 335.546, 138 336.417 M 131 337.376 C 131 337.610, 132.602 338.748, 134.560 339.903 C 136.518 341.058, 137.840 341.549, 137.497 340.995 C 136.827 339.911, 131 336.665, 131 337.376 M 147 348.441 C 147 349.234, 147.450 350.160, 148 350.500 C 148.550 350.840, 149 350.191, 149 349.059 C 149 347.927, 148.550 347, 148 347 C 147.450 347, 147 347.648, 147 348.441 M 365.250 352.732 C 363.730 355.974, 363.672 358.992, 365.090 361 C 365.876 362.113, 365.986 361.513, 365.515 358.674 C 365.127 356.335, 365.329 354.308, 366.035 353.458 C 366.670 352.693, 367.034 351.617, 366.845 351.066 C 366.655 350.516, 365.938 351.265, 365.250 352.732 M 144.181 365.179 C 143.481 367.556, 142.646 370.125, 142.324 370.889 C 141.967 371.740, 142.168 372.014, 142.843 371.597 C 144.067 370.841, 146.307 363.421, 145.785 361.855 C 145.602 361.307, 144.880 362.803, 144.181 365.179 M 141.389 375.948 C 141.679 377.294, 141.430 378.982, 140.836 379.698 C 140.004 380.700, 140.260 381, 141.945 381 C 143.753 381, 144.015 380.608, 143.446 378.750 C 142.353 375.176, 140.754 372.999, 141.389 375.948 M 364.667 376.667 C 363.449 377.885, 363.978 380, 365.500 380 C 366.333 380, 367 379.111, 367 378 C 367 376.008, 365.934 375.399, 364.667 376.667 M 237.768 379.725 C 239.565 379.947, 242.265 379.943, 243.768 379.715 C 245.271 379.486, 243.800 379.304, 240.500 379.310 C 237.200 379.315, 235.971 379.502, 237.768 379.725 M 266.083 379.363 C 266.313 379.562, 270.325 379.970, 275 380.270 C 280.933 380.649, 282.292 380.557, 279.500 379.965 C 275.540 379.124, 265.280 378.663, 266.083 379.363 M 220.768 381.725 C 222.565 381.947, 225.265 381.943, 226.768 381.715 C 228.271 381.486, 226.800 381.304, 223.500 381.310 C 220.200 381.315, 218.971 381.502, 220.768 381.725 M 290.500 382.046 C 293.250 382.474, 297.075 382.804, 299 382.779 C 301.831 382.742, 301.545 382.584, 297.500 381.954 C 294.750 381.526, 290.925 381.196, 289 381.221 C 286.169 381.258, 286.455 381.416, 290.500 382.046 M 165 383 C 165 383.550, 166.800 384, 169 384 C 171.200 384, 173 383.550, 173 383 C 173 382.450, 171.200 382, 169 382 C 166.800 382, 165 382.450, 165 383 M 306.500 383.977 C 308.700 384.394, 312.750 385.007, 315.500 385.340 C 320.209 385.910, 320.354 385.862, 318 384.508 C 316.480 383.634, 312.953 383.100, 309 383.145 C 303.098 383.212, 302.868 383.289, 306.500 383.977 M 193.250 384.716 C 194.762 384.945, 197.238 384.945, 198.750 384.716 C 200.262 384.487, 199.025 384.300, 196 384.300 C 192.975 384.300, 191.738 384.487, 193.250 384.716 M 372 385 C 372 385.550, 370.848 386, 369.441 386 C 367.990 386, 367.149 386.433, 367.500 387 C 368.662 388.881, 372.564 388.134, 372.725 386 C 372.808 384.900, 372.679 384, 372.438 384 C 372.197 384, 372 384.450, 372 385 M 180 386.019 C 178.945 386.715, 179.688 386.830, 182.500 386.409 C 184.700 386.079, 186.688 385.627, 186.917 385.405 C 187.824 384.523, 181.404 385.094, 180 386.019 M 324.500 386 C 326.150 386.420, 328.850 386.785, 330.500 386.811 C 333.041 386.852, 333.194 386.728, 331.500 386 C 330.400 385.527, 327.700 385.162, 325.500 385.189 C 321.677 385.235, 321.633 385.270, 324.500 386 M 138.136 388.275 L 138 391.050 147.250 390.437 C 157.124 389.783, 161.069 388.715, 152.098 389.125 C 148.032 389.310, 146.447 388.964, 145.511 387.685 C 143.875 385.447, 143 385.557, 143 388 C 143 390.880, 139.267 390.663, 138.706 387.750 C 138.337 385.838, 138.252 385.917, 138.136 388.275 M 164.500 388 L 159.500 388.686 164 388.725 C 166.475 388.746, 169.850 388.420, 171.500 388 C 174.133 387.330, 174.194 387.241, 172 387.275 C 170.625 387.297, 167.250 387.623, 164.500 388 M 341.500 388.046 C 344.250 388.474, 347.850 388.833, 349.500 388.842 C 352.052 388.857, 352.201 388.731, 350.500 388 C 349.400 387.527, 345.800 387.169, 342.500 387.204 L 336.500 387.267 341.500 388.046 M 257.689 390.289 C 256.692 391.298, 256.017 392.740, 256.189 393.494 C 256.687 395.688, 260.235 392.584, 259.830 390.309 C 259.510 388.511, 259.445 388.510, 257.689 390.289 M 251.675 399.503 C 251.311 403.351, 251.076 409.425, 251.151 413 C 251.245 417.477, 251.552 415.610, 252.136 407 C 253.060 393.401, 252.741 388.213, 251.675 399.503 M 260.248 427 C 260.320 444.325, 260.646 460.525, 260.973 463 C 261.301 465.475, 261.405 451.750, 261.206 432.500 C 261.007 413.250, 260.681 397.050, 260.482 396.500 C 260.282 395.950, 260.177 409.675, 260.248 427 M 256.751 424.524 C 256.485 425.912, 256.658 427.289, 257.134 427.583 C 257.610 427.877, 258 426.741, 258 425.059 C 258 421.347, 257.407 421.092, 256.751 424.524 M 250.349 436 C 250.349 440.675, 250.522 442.587, 250.732 440.250 C 250.943 437.913, 250.943 434.087, 250.732 431.750 C 250.522 429.413, 250.349 431.325, 250.349 436 M 249.349 460 C 249.349 464.675, 249.522 466.587, 249.732 464.250 C 249.943 461.913, 249.943 458.087, 249.732 455.750 C 249.522 453.413, 249.349 455.325, 249.349 460 M 248.252 479.500 C 248.263 481.700, 248.468 482.482, 248.707 481.238 C 248.946 479.994, 248.937 478.194, 248.687 477.238 C 248.437 476.282, 248.241 477.300, 248.252 479.500 M 260.622 476.802 C 260.350 477.243, 260.489 480.730, 260.932 484.552 L 261.737 491.500 261.869 483.750 C 261.994 476.378, 261.744 474.987, 260.622 476.802 M 247.624 493.539 C 247.281 494.432, 247.039 495.914, 247.086 496.832 C 247.133 497.749, 247.568 497.173, 248.053 495.550 C 248.996 492.394, 248.662 490.832, 247.624 493.539 M 249.333 501.840 L 249.333 505 255.060 505 C 259.593 505, 260.925 504.635, 261.452 503.250 C 261.986 501.847, 261.869 501.748, 260.859 502.750 C 258.620 504.973, 253.771 504.246, 251.454 501.340 L 249.333 498.680 249.333 501.840" stroke="none" fill="#e10a0c" fill-rule="evenodd"/><path d="M 251.331 4.250 C 250.828 4.938, 249.918 6.625, 249.308 8 C 246.314 14.749, 243.701 19.952, 241.020 24.500 C 238.392 28.959, 231.236 43.065, 229.606 47 C 229.264 47.825, 226.754 52.550, 224.027 57.500 C 221.301 62.450, 218.314 68.075, 217.390 70 C 212.442 80.310, 212.781 79.910, 208.427 80.563 C 203.962 81.233, 199.541 79.516, 187.780 72.544 C 184.635 70.680, 181.035 68.841, 179.780 68.459 C 178.526 68.076, 176.755 67.110, 175.844 66.311 C 174.892 65.477, 172.764 64.996, 170.844 65.180 C 167.648 65.486, 167.503 65.678, 167.573 69.500 C 167.639 73.127, 168.631 79.360, 171.154 92 C 172.205 97.266, 174.549 110.747, 176.022 120 C 178.099 133.045, 179.655 141.534, 180.237 143 C 181.212 145.454, 182.091 149.997, 183.034 157.463 C 183.523 161.333, 184.827 169.450, 185.930 175.500 C 188.553 189.877, 188.519 192.285, 185.645 195.626 C 183.471 198.154, 183.062 198.268, 180.288 197.119 C 177.342 195.899, 170 189.640, 170 188.349 C 170 187.773, 163.759 180.526, 157.983 174.395 C 156.892 173.237, 156 171.938, 156 171.509 C 156 171.080, 154.988 169.709, 153.750 168.463 C 152.512 167.216, 149.700 164.072, 147.500 161.477 C 145.300 158.881, 141.015 153.999, 137.977 150.629 C 134.939 147.258, 131.173 142.813, 129.608 140.750 C 124.729 134.320, 120.195 135.988, 118.051 145 C 117.331 148.025, 116.379 150.962, 115.934 151.527 C 115.489 152.092, 114.393 155.773, 113.498 159.708 C 112.603 163.643, 111.200 167.419, 110.379 168.100 C 108.553 169.616, 100.666 169.532, 94.824 167.935 C 87.548 165.947, 77.647 164, 74.809 164 C 73.329 164, 71.869 163.598, 71.565 163.106 C 71.261 162.614, 69.322 161.980, 67.256 161.697 C 65.190 161.414, 60.125 160.467, 56 159.593 C 46.403 157.558, 41.118 157.528, 40.359 159.506 C 39.781 161.014, 41.482 168.804, 45.054 181 C 46.101 184.575, 47.884 191.325, 49.016 196 C 50.147 200.675, 51.786 206.975, 52.657 210 C 53.529 213.025, 55.335 220.157, 56.671 225.848 C 59.531 238.026, 59.191 239.115, 51.383 242.812 C 33.836 251.122, 33.516 251.330, 33.191 254.691 C 32.859 258.117, 32.987 258.281, 41.970 266 C 44.850 268.475, 48.224 271.512, 49.468 272.750 C 50.712 273.988, 52.076 275, 52.500 275 C 52.924 275, 54.246 276.012, 55.439 277.250 C 60.803 282.816, 77.398 296, 79.040 296 C 79.595 296, 80.468 297.101, 80.980 298.448 C 81.492 299.794, 83.168 301.696, 84.705 302.674 C 87.715 304.589, 95.346 310.974, 105.895 320.403 C 109.528 323.650, 113.762 327.080, 115.304 328.025 C 116.847 328.971, 121.122 332.491, 124.804 335.849 C 128.487 339.206, 133.806 343.998, 136.625 346.497 C 143.289 352.405, 143.978 355.852, 140.489 365.838 C 139.120 369.757, 138 373.674, 138 374.543 C 138 375.413, 137.294 378.283, 136.431 380.921 C 135.568 383.559, 135.006 387.468, 135.181 389.608 L 135.500 393.500 144 393.451 C 152.288 393.404, 166.368 392.045, 180.500 389.929 C 184.350 389.352, 191.550 388.488, 196.500 388.008 C 201.450 387.528, 213.374 386.205, 222.999 385.068 C 244.218 382.560, 244.235 382.560, 246.984 384.786 L 249.189 386.572 248.064 411.536 C 247.445 425.266, 246.502 447.300, 245.969 460.500 C 245.436 473.700, 244.779 489.287, 244.511 495.137 C 244.128 503.470, 244.324 506.024, 245.416 506.930 C 246.283 507.650, 249.739 507.976, 254.552 507.794 C 266.471 507.341, 265.893 509.497, 264.965 469 C 264.543 450.575, 263.881 424.404, 263.494 410.842 L 262.791 386.183 265.382 384.485 C 267.700 382.967, 269.114 382.905, 278.737 383.899 C 284.657 384.510, 292.875 385.472, 297 386.035 C 301.125 386.599, 308.325 387.465, 313 387.961 C 332.928 390.073, 357.898 393.101, 362.963 394.020 C 369.720 395.246, 374.719 394.394, 376.119 391.778 C 377.401 389.383, 376.740 385.468, 373.324 375.224 C 370.053 365.413, 368.017 356.107, 369.007 355.495 C 369.429 355.235, 370.055 353.523, 370.398 351.690 C 370.967 348.660, 375.422 344, 377.751 344 C 378.209 344, 380.571 341.975, 383 339.500 C 385.429 337.025, 387.994 335, 388.699 335 C 389.404 335, 390.998 333.431, 392.241 331.512 C 393.483 329.594, 394.874 328.019, 395.332 328.012 C 396.422 327.996, 404.679 321.455, 408.524 317.562 C 410.187 315.878, 413.752 312.809, 416.447 310.742 C 419.143 308.676, 424.704 303.951, 428.805 300.242 C 432.907 296.534, 437.248 292.825, 438.453 292 C 441.109 290.180, 443.021 288.574, 447.972 284 C 450.056 282.075, 453.278 279.276, 455.131 277.781 C 456.984 276.286, 461.050 272.911, 464.168 270.281 C 467.285 267.651, 471.922 263.760, 474.473 261.632 C 480.045 256.985, 480.380 253.523, 475.500 251.032 C 473.850 250.189, 472.140 248.938, 471.700 248.250 C 471.260 247.562, 470.307 247, 469.582 247 C 468.072 247, 455.649 240.783, 453.356 238.880 C 452.407 238.093, 452.020 236.646, 452.333 235.057 C 453.323 230.032, 455.050 223.467, 455.901 221.500 C 456.376 220.400, 458.237 213.200, 460.035 205.500 C 461.834 197.800, 464.087 188.988, 465.043 185.917 C 465.999 182.847, 467.327 177.672, 467.993 174.417 C 468.660 171.163, 469.646 167.561, 470.185 166.412 C 471.550 163.502, 470.828 158.907, 468.807 157.642 C 467.598 156.885, 465.596 156.939, 461.807 157.831 C 458.888 158.518, 453.424 159.735, 449.664 160.534 C 445.904 161.334, 442.316 162.305, 441.689 162.692 C 441.063 163.079, 438.289 163.734, 435.525 164.148 C 432.761 164.561, 425.316 165.984, 418.979 167.310 C 406.138 169.997, 401.541 169.835, 399.757 166.632 C 399.104 165.460, 397.321 159.571, 395.796 153.547 C 394.271 147.523, 392.424 141.995, 391.692 141.263 C 390.960 140.532, 388.797 139.679, 386.885 139.369 C 383.119 138.758, 383.351 138.557, 372.841 151.500 C 370.608 154.250, 365.665 159.718, 361.857 163.652 C 358.049 167.586, 353.935 172.172, 352.716 173.844 C 346.263 182.694, 335.673 194.711, 333.002 196.217 C 329.074 198.429, 325.766 197.265, 324.023 193.057 C 322.637 189.711, 323.530 180.919, 326.516 168.500 C 327.309 165.200, 329.548 153.275, 331.490 142 C 333.432 130.725, 335.450 119.250, 335.974 116.500 C 341.356 88.255, 344.019 72.992, 344.011 70.450 C 343.999 66.984, 342.451 65, 339.759 65 C 338.140 65, 328.148 69.501, 324 72.099 C 321.968 73.371, 308.966 79.568, 306.597 80.392 C 302.831 81.703, 297.975 79.087, 295.932 74.646 C 294.883 72.366, 293.583 69.825, 293.043 69 C 292.503 68.175, 289.089 61.341, 285.458 53.812 C 281.826 46.284, 278.213 39.591, 277.428 38.940 C 276.642 38.288, 276 37.265, 276 36.666 C 276 35.691, 269.096 20.764, 266.903 17 C 266.423 16.175, 265.395 14.150, 264.619 12.500 C 261.183 5.191, 253.934 0.690, 251.331 4.250 M 257 10.209 C 257 11.066, 257.900 12.002, 259 12.290 C 260.302 12.630, 261.044 13.718, 261.125 15.406 C 261.313 19.314, 261.423 19.763, 262.410 20.667 C 262.939 21.151, 263.019 20.976, 262.601 20.250 C 262.206 19.563, 262.326 19, 262.868 19 C 263.410 19, 264.059 19.788, 264.311 20.750 C 264.697 22.226, 264.786 22.246, 264.884 20.872 C 264.948 19.977, 264.325 18.685, 263.500 18 C 262.675 17.315, 262 15.989, 262 15.052 C 262 14.115, 260.875 12.292, 259.500 11 C 257.575 9.192, 257 9.010, 257 10.209 M 251.667 10.667 C 251.300 11.033, 251.029 12.271, 251.063 13.417 C 251.122 15.332, 251.204 15.307, 252.085 13.105 C 253.064 10.657, 252.861 9.472, 251.667 10.667 M 245.592 23.500 C 244.691 24.875, 244.342 26, 244.816 26 C 245.291 26, 246.192 24.875, 246.818 23.500 C 247.445 22.125, 247.794 21, 247.594 21 C 247.394 21, 246.493 22.125, 245.592 23.500 M 265 23.618 C 265 24.168, 265.661 25.491, 266.468 26.559 C 267.276 27.626, 267.936 28.050, 267.936 27.500 C 267.936 26.950, 267.276 25.626, 266.468 24.559 C 265.661 23.491, 265 23.068, 265 23.618 M 269.006 31.628 C 269.003 32.798, 269.675 34.315, 270.500 35 C 272.389 36.567, 272.390 35.976, 270.506 32.364 C 269.211 29.882, 269.012 29.784, 269.006 31.628 M 241 38.500 C 241 39.325, 241.450 40, 242 40 C 242.550 40, 243 39.325, 243 38.500 C 243 37.675, 242.550 37, 242 37 C 241.450 37, 241 37.675, 241 38.500 M 234.390 44.608 C 233.561 46.593, 233.124 48.457, 233.418 48.751 C 233.712 49.045, 234.225 48.434, 234.558 47.393 C 234.891 46.352, 235.566 44.487, 236.060 43.250 C 236.553 42.013, 236.719 41, 236.428 41 C 236.136 41, 235.220 42.624, 234.390 44.608 M 236.807 54.137 C 237.188 56.735, 237.430 56.982, 238.217 55.576 C 239.233 53.761, 238.622 51, 237.205 51 C 236.733 51, 236.554 52.412, 236.807 54.137 M 228.458 56.424 C 226.807 59.928, 226.719 60.568, 227.998 59.769 C 229.541 58.806, 232.293 51.955, 231.101 52.046 C 230.770 52.071, 229.581 54.041, 228.458 56.424 M 221.114 70.011 C 219.881 72.205, 219.081 74, 219.337 74 C 220.014 74, 224.148 66.815, 223.718 66.385 C 223.519 66.186, 222.347 67.817, 221.114 70.011 M 170.170 69 C 170.186 69.825, 170.560 71.625, 171 73 C 171.644 75.010, 171.806 75.108, 171.830 73.500 C 171.846 72.400, 171.473 70.600, 171 69.500 C 170.473 68.275, 170.152 68.081, 170.170 69 M 224.605 69.588 C 223.750 71.816, 223.818 72, 225.500 72 C 226.325 72, 227 71.352, 227 70.559 C 227 68.443, 225.307 67.757, 224.605 69.588 M 336.987 69.552 C 335.619 70.310, 334.950 70.938, 335.500 70.949 C 336.050 70.960, 337.175 70.539, 338 70.012 C 339.169 69.267, 339.639 69.656, 340.132 71.778 L 340.763 74.500 340.882 71.809 C 341.033 68.377, 340.094 67.833, 336.987 69.552 M 288.631 72.520 C 288.292 73.404, 287.561 73.847, 287.007 73.504 C 286.453 73.162, 286 73.584, 286 74.441 C 286 76.741, 288.758 76.337, 289.524 73.925 C 290.309 71.452, 289.518 70.208, 288.631 72.520 M 179.275 74 C 179.111 76.177, 179.488 76.294, 182.500 75 C 184.210 74.265, 184.246 74.130, 182.750 74.070 C 181.787 74.032, 181 73.550, 181 73 C 181 71.096, 179.425 72.009, 179.275 74 M 185.507 76.011 C 185.843 76.555, 186.582 77, 187.149 77 C 187.716 77, 188.927 77.906, 189.840 79.014 C 190.753 80.121, 192.963 81.440, 194.750 81.944 C 199.090 83.168, 198.876 82.393, 194.352 80.503 C 192.346 79.665, 190.209 78.371, 189.602 77.629 C 188.282 76.013, 184.612 74.563, 185.507 76.011 M 218 77.500 C 217.315 78.325, 217.148 79.007, 217.628 79.015 C 218.107 79.024, 217.825 79.467, 217 80 C 215.861 80.736, 215.823 80.973, 216.844 80.985 C 217.583 80.993, 218.421 80.105, 218.707 79.011 C 218.993 77.917, 219.696 77.312, 220.268 77.666 C 220.872 78.039, 221.010 77.825, 220.595 77.155 C 219.680 75.673, 219.496 75.697, 218 77.500 M 327 77.941 C 327 79.009, 327.450 80.160, 328 80.500 C 328.567 80.851, 329 80.010, 329 78.559 C 329 77.152, 328.550 76, 328 76 C 327.450 76, 327 76.873, 327 77.941 M 338.645 78.675 C 337.619 82.154, 336.780 88, 337.306 88 C 337.992 88, 340.176 77.843, 339.612 77.279 C 339.376 77.043, 338.941 77.671, 338.645 78.675 M 172.610 82.500 C 173.433 86.177, 174.005 86.975, 173.985 84.417 C 173.976 83.362, 173.513 81.825, 172.954 81 C 172.213 79.905, 172.120 80.309, 172.610 82.500 M 313 81.583 C 310.656 82.884, 310.633 82.971, 312.628 82.985 C 313.798 82.993, 315.315 82.325, 316 81.500 C 317.508 79.683, 316.367 79.715, 313 81.583 M 298 83.415 C 299.925 84.203, 302.850 84.830, 304.500 84.809 C 307.417 84.771, 307.403 84.749, 304 84.026 C 302.075 83.617, 299.150 82.989, 297.500 82.632 C 294.768 82.040, 294.812 82.110, 298 83.415 M 206 84 L 201.500 84.700 205.500 84.834 C 207.700 84.909, 210.175 84.533, 211 84 C 211.825 83.467, 212.050 83.091, 211.500 83.166 C 210.950 83.240, 208.475 83.615, 206 84 M 197.639 86.694 C 196.513 87.820, 196.954 89, 198.500 89 C 199.325 89, 200 88.577, 200 88.059 C 200 86.798, 198.438 85.895, 197.639 86.694 M 307.500 87.922 C 305.562 88.680, 305.569 88.726, 307.741 89.417 C 310.108 90.169, 312 89.513, 312 87.941 C 312 86.836, 310.298 86.829, 307.500 87.922 M 332.526 89.950 C 330.775 93.335, 330.544 96, 332 96 C 332.550 96, 333 94.848, 333 93.441 C 333 91.990, 333.433 91.149, 334 91.500 C 334.567 91.851, 335 91.010, 335 89.559 C 335 86.234, 334.398 86.329, 332.526 89.950 M 174.115 90 C 174.069 91.375, 174.467 93.175, 175 94 C 175.862 95.333, 175.960 95.333, 175.885 94 C 175.839 93.175, 175.440 91.375, 175 90 L 174.199 87.500 174.115 90 M 325 99 C 325 100.100, 325.450 101, 326 101 C 326.550 101, 327 100.100, 327 99 C 327 97.900, 326.550 97, 326 97 C 325.450 97, 325 97.900, 325 99 M 332 113.441 C 332 116.505, 332.570 116.753, 333.289 114.001 C 333.577 112.902, 333.404 111.750, 332.906 111.442 C 332.408 111.134, 332 112.034, 332 113.441 M 329.704 127.643 C 328.767 132.672, 328.038 137.622, 328.084 138.643 C 328.131 139.664, 329.033 136.225, 330.089 131 C 331.145 125.775, 331.874 120.825, 331.709 120 C 331.544 119.175, 330.642 122.614, 329.704 127.643 M 182.070 137.191 C 182.032 138.671, 182.450 140.160, 183 140.500 C 183.550 140.840, 184.061 142.329, 184.136 143.809 C 184.235 145.764, 184.382 145.953, 184.672 144.500 C 184.891 143.400, 184.412 140.700, 183.606 138.500 C 182.310 134.962, 182.133 134.811, 182.070 137.191 M 121.217 146.322 C 120.548 149.202, 120 152.359, 120 153.338 C 120 154.429, 119.553 154.842, 118.845 154.405 C 118.130 153.962, 117.962 154.130, 118.405 154.845 C 119.714 156.964, 121 156.034, 121 152.968 C 121 151.300, 121.627 148.436, 122.393 146.603 C 123.158 144.770, 123.481 142.779, 123.110 142.178 C 122.739 141.577, 121.887 143.442, 121.217 146.322 M 383.634 143.852 C 382.735 144.845, 382 146.028, 382 146.482 C 382 146.935, 382.831 146.348, 383.847 145.176 L 385.695 143.046 387.716 145.273 C 388.828 146.498, 390.077 148.850, 390.492 150.500 C 390.907 152.150, 391.424 153.027, 391.640 152.450 C 392.192 150.976, 389.491 143.503, 388.399 143.485 C 387.905 143.476, 386.998 143.149, 386.384 142.758 C 385.770 142.367, 384.532 142.859, 383.634 143.852 M 326.624 144.539 C 326.281 145.432, 326.052 147.364, 326.115 148.832 C 326.201 150.830, 326.426 150.496, 327.010 147.500 C 327.838 143.249, 327.655 141.850, 326.624 144.539 M 188 146.802 C 188 147.426, 187.338 147.683, 186.529 147.373 C 185.287 146.896, 185.154 147.875, 185.676 153.654 C 186.017 157.419, 186.608 161.373, 186.990 162.440 C 187.941 165.096, 187.518 153.094, 186.555 150.125 C 186.050 148.566, 186.142 147.970, 186.824 148.391 C 187.975 149.103, 189.551 147.218, 188.600 146.267 C 188.270 145.937, 188 146.178, 188 146.802 M 384.094 149.387 C 383.276 150.372, 383.234 151.026, 383.959 151.474 C 384.539 151.833, 385.292 151.404, 385.631 150.520 C 386.475 148.320, 385.547 147.636, 384.094 149.387 M 125 150.500 C 125 151.325, 125.450 152, 126 152 C 126.550 152, 127 151.325, 127 150.500 C 127 149.675, 126.550 149, 126 149 C 125.450 149, 125 149.675, 125 150.500 M 138 156.826 C 138 157.280, 139.196 158.742, 140.658 160.076 L 143.317 162.500 140.970 159.250 C 138.530 155.869, 138 155.437, 138 156.826 M 324 159.500 C 324 161.425, 324.176 163, 324.391 163 C 324.605 163, 324.965 161.425, 325.190 159.500 C 325.415 157.575, 325.239 156, 324.799 156 C 324.360 156, 324 157.575, 324 159.500 M 116.881 159.781 C 116.552 161.769, 116.698 162.702, 117.253 162.147 C 117.757 161.643, 118.002 160.166, 117.797 158.865 C 117.482 156.864, 117.342 157.004, 116.881 159.781 M 392 158.750 C 392 159.227, 392.653 160.491, 393.450 161.559 C 394.849 163.432, 394.880 163.420, 394.330 161.234 C 393.761 158.977, 392 157.099, 392 158.750 M 462.267 160.704 C 460.648 161.016, 460.123 161.721, 460.358 163.265 C 460.810 166.226, 462.776 166.606, 463.173 163.808 C 463.406 162.166, 464.135 161.521, 465.700 161.574 C 466.910 161.615, 467.671 161.277, 467.391 160.824 C 466.868 159.977, 466.122 159.959, 462.267 160.704 M 44.516 164.455 C 44.834 165.530, 45.371 168.424, 45.708 170.886 C 46.227 174.672, 46.449 175.020, 47.144 173.141 C 47.596 171.918, 47.570 170.149, 47.086 169.209 C 46.602 168.269, 45.695 166.375, 45.072 165 C 44.448 163.625, 44.198 163.380, 44.516 164.455 M 449.500 164 C 446.732 164.704, 446.694 164.771, 449 164.866 C 450.375 164.923, 452.175 164.533, 453 164 C 454.702 162.900, 453.822 162.900, 449.500 164 M 65 165.707 C 66.375 165.946, 68.050 166.853, 68.722 167.723 C 69.718 169.013, 70.551 169.111, 73.222 168.255 L 76.500 167.204 73.309 167.102 C 71.554 167.046, 69.840 166.550, 69.500 166 C 69.160 165.450, 67.446 165.061, 65.691 165.136 C 62.990 165.251, 62.884 165.339, 65 165.707 M 137 166.417 C 137 167.287, 137.713 168, 138.583 168 C 140.349 168, 140.042 165.847, 138.188 165.229 C 137.534 165.011, 137 165.546, 137 166.417 M 321.642 167.424 C 320.377 169.355, 320.212 170.758, 320.906 173.705 L 321.799 177.500 321.900 174.315 C 321.955 172.563, 322.463 169.913, 323.028 168.426 C 324.390 164.843, 323.673 164.324, 321.642 167.424 M 453.639 165.694 C 452.513 166.820, 452.954 168, 454.500 168 C 455.325 168, 456 167.577, 456 167.059 C 456 165.798, 454.438 164.895, 453.639 165.694 M 191 169 C 191 170.650, 191.450 172, 192 172 C 192.550 172, 193 172.900, 193 174 C 193 175.100, 193.450 176, 194 176 C 194.550 176, 195 175.100, 195 174 C 195 172.900, 194.550 172, 194 172 C 193.450 172, 193 170.650, 193 169 C 193 167.350, 192.550 166, 192 166 C 191.450 166, 191 167.350, 191 169 M 113.551 169.944 C 112.583 171.013, 110.826 172.077, 109.646 172.308 C 107.554 172.717, 107.552 172.731, 109.576 172.864 C 110.717 172.939, 112.708 171.875, 114 170.500 C 115.292 169.125, 116.115 168, 115.829 168 C 115.544 168, 114.518 168.875, 113.551 169.944 M 147.624 169.539 C 147.281 170.432, 147 171.255, 147 171.368 C 147 171.480, 147.875 171.571, 148.945 171.571 C 150.531 171.571, 150.675 171.288, 149.728 170.036 C 149.089 169.191, 148.494 168.368, 148.407 168.207 C 148.319 168.046, 147.966 168.645, 147.624 169.539 M 359.250 171.619 C 356.157 175.014, 354.863 177.821, 357 176.500 C 357.550 176.160, 358 175.452, 358 174.927 C 358 174.402, 359.462 172.641, 361.250 171.015 C 363.038 169.389, 364.050 168.057, 363.500 168.055 C 362.950 168.054, 361.038 169.657, 359.250 171.619 M 442.500 169 C 442.840 169.550, 444.441 170, 446.059 170 C 447.677 170, 449 169.550, 449 169 C 449 168.450, 447.398 168, 445.441 168 C 443.323 168, 442.132 168.405, 442.500 169 M 461 169.941 C 461 171.073, 461.450 172, 462 172 C 462.550 172, 463 171.352, 463 170.559 C 463 169.766, 462.550 168.840, 462 168.500 C 461.450 168.160, 461 168.809, 461 169.941 M 87 170.158 C 93.432 171.911, 95.542 172.097, 91.500 170.556 C 89.300 169.717, 86.600 169.069, 85.500 169.117 C 84.364 169.167, 85.013 169.617, 87 170.158 M 151.818 174.176 C 151.411 176.305, 151.673 176.825, 153.102 176.717 C 154.192 176.635, 154.578 176.173, 154.083 175.541 C 153.635 174.968, 153.058 173.825, 152.800 173 C 152.508 172.066, 152.137 172.510, 151.818 174.176 M 462.240 177.750 C 462.304 178.713, 461.781 181.218, 461.078 183.317 C 460.376 185.416, 460.026 187.359, 460.301 187.634 C 460.859 188.192, 462.675 182.982, 463.398 178.750 C 463.656 177.238, 463.475 176, 462.996 176 C 462.517 176, 462.176 176.787, 462.240 177.750 M 190.218 180 C 190.208 181.375, 190.560 183.625, 191 185 C 191.627 186.959, 191.797 187.067, 191.782 185.500 C 191.772 184.400, 191.420 182.150, 191 180.500 C 190.314 177.805, 190.235 177.754, 190.218 180 M 160.275 186 C 160.192 187.100, 160.546 188, 161.062 188 C 161.578 188, 162 187.100, 162 186 C 162 184.900, 161.646 184, 161.213 184 C 160.780 184, 160.358 184.900, 160.275 186 M 315 186 C 315 187.867, 315.267 188.133, 316.200 187.200 C 317.133 186.267, 317.133 185.733, 316.200 184.800 C 315.267 183.867, 315 184.133, 315 186 M 345.823 188.295 C 344.586 190.058, 343.085 191.950, 342.488 192.500 C 341.890 193.050, 340.790 194.400, 340.043 195.500 C 339.296 196.600, 340.839 195.250, 343.472 192.500 C 346.105 189.750, 348.876 187.632, 349.630 187.794 C 351.468 188.188, 351.388 186.363, 349.536 185.652 C 348.626 185.303, 347.221 186.302, 345.823 188.295 M 319.118 189.559 C 319.049 191.922, 319.658 194.429, 320.574 195.559 C 321.440 196.626, 321.849 196.915, 321.484 196.200 C 321.119 195.485, 320.463 192.785, 320.028 190.200 L 319.235 185.500 319.118 189.559 M 52.645 197 C 53.436 201.313, 54.005 202.126, 53.985 198.917 C 53.976 197.588, 53.527 195.825, 52.986 195 C 52.294 193.945, 52.193 194.538, 52.645 197 M 165.469 195.050 C 164.519 196.588, 165.820 197.580, 167.104 196.296 C 167.822 195.578, 167.839 195.019, 167.156 194.597 C 166.596 194.251, 165.837 194.455, 165.469 195.050 M 189.149 197.012 C 187.934 198.656, 187.291 199.986, 187.720 199.969 C 188.717 199.928, 192.335 195.002, 191.777 194.444 C 191.547 194.213, 190.364 195.369, 189.149 197.012 M 457.595 196.928 C 457.268 198.618, 456.739 201.350, 456.421 203 C 456.102 204.650, 456.070 206, 456.350 206 C 457.067 206, 459.281 194.947, 458.683 194.349 C 458.412 194.078, 457.922 195.239, 457.595 196.928 M 323.140 200.408 C 323.942 202.167, 324.815 202.554, 327.326 202.261 C 333.103 201.588, 335 200.975, 335 199.781 C 335 198.884, 334.712 198.888, 333.800 199.800 C 332.195 201.405, 328.114 201.308, 324.813 199.586 C 322.213 198.229, 322.159 198.256, 323.140 200.408 M 315.500 202 C 315.160 202.550, 315.021 203.034, 315.191 203.077 C 318.070 203.789, 318.796 203.633, 318.324 202.401 C 317.695 200.763, 316.380 200.576, 315.500 202 M 54.520 205.033 C 54.960 205.744, 55.668 207.715, 56.095 209.413 C 56.832 212.342, 56.862 212.299, 56.686 208.577 C 56.576 206.250, 55.935 204.469, 55.111 204.198 C 54.182 203.892, 53.986 204.169, 54.520 205.033 M 65 205.500 C 65 206.325, 65.450 207, 66 207 C 66.550 207, 67 206.325, 67 205.500 C 67 204.675, 66.550 204, 66 204 C 65.450 204, 65 204.675, 65 205.500 M 454.684 208.382 C 454.308 209.362, 454.029 210.914, 454.063 211.832 C 454.105 212.937, 454.453 212.685, 455.092 211.086 C 455.623 209.758, 455.902 208.206, 455.712 207.636 C 455.522 207.067, 455.059 207.403, 454.684 208.382 M 61 213 C 61 214.650, 61.450 216, 62 216 C 62.550 216, 63 214.650, 63 213 C 63 211.350, 62.550 210, 62 210 C 61.450 210, 61 211.350, 61 213 M 452.881 216.781 C 452.552 218.769, 452.698 219.702, 453.253 219.147 C 453.757 218.643, 454.002 217.166, 453.797 215.865 C 453.482 213.864, 453.342 214.004, 452.881 216.781 M 67 219 C 67 220.100, 67.450 221, 68 221 C 68.550 221, 69 220.100, 69 219 C 69 217.900, 68.550 217, 68 217 C 67.450 217, 67 217.900, 67 219 M 60.656 227.500 C 60.991 229.700, 61.431 231.688, 61.633 231.917 C 62.390 232.776, 61.823 227.420, 60.953 225.500 C 60.322 224.106, 60.232 224.712, 60.656 227.500 M 65 234 C 65 235.100, 65.450 236, 66 236 C 66.550 236, 67 235.100, 67 234 C 67 232.900, 66.550 232, 66 232 C 65.450 232, 65 232.900, 65 234 M 444.682 232.652 C 443.469 233.864, 443.958 235.667, 445.500 235.667 C 447.183 235.667, 447.342 235.086, 446.166 233.235 C 445.725 232.539, 445.057 232.277, 444.682 232.652 M 61.477 238.158 C 60.895 240.124, 59.127 242.375, 57.102 243.729 C 53.152 246.369, 53.848 246.794, 58.053 244.309 C 60.925 242.613, 63.525 238.076, 62.827 235.981 C 62.621 235.364, 62.014 236.344, 61.477 238.158 M 452.425 243.879 C 452.724 244.363, 453.988 245.016, 455.234 245.330 C 457.420 245.880, 457.432 245.849, 455.559 244.450 C 453.409 242.844, 451.580 242.511, 452.425 243.879 M 42.250 250.958 C 38.813 252.585, 36.007 254.497, 36.015 255.208 C 36.025 256.001, 36.315 256.114, 36.768 255.500 C 37.864 254.014, 45.659 250, 47.448 250 C 48.302 250, 49 249.550, 49 249 C 49 247.691, 49.407 247.573, 42.250 250.958 M 447.543 249.931 C 446.803 251.128, 448.684 252.313, 450.016 251.490 C 451.135 250.799, 450.400 249, 449 249 C 448.515 249, 447.859 249.419, 447.543 249.931 M 50 251 C 50 251.550, 50.927 252, 52.059 252 C 53.191 252, 53.840 251.550, 53.500 251 C 53.160 250.450, 52.234 250, 51.441 250 C 50.648 250, 50 250.450, 50 251 M 46.229 257.188 C 46.847 259.042, 49 259.349, 49 257.583 C 49 256.712, 48.288 256, 47.417 256 C 46.546 256, 46.011 256.534, 46.229 257.188 M 42 260.236 C 42 260.572, 43.350 262.196, 45 263.846 C 46.650 265.496, 48 266.515, 48 266.110 C 48 265.705, 46.650 264.081, 45 262.500 C 43.350 260.919, 42 259.900, 42 260.236 M 458.102 269.586 C 456.233 270.914, 455.196 272, 455.796 272 C 456.397 272, 458.151 270.889, 459.694 269.532 C 463.228 266.423, 462.520 266.447, 458.102 269.586 M 441 269.500 C 441 270.333, 441.889 271, 443 271 C 444.111 271, 445 270.333, 445 269.500 C 445 268.667, 444.111 268, 443 268 C 441.889 268, 441 268.667, 441 269.500 M 452 269 C 452 269.550, 452.675 270, 453.500 270 C 454.325 270, 455 269.550, 455 269 C 455 268.450, 454.325 268, 453.500 268 C 452.675 268, 452 268.450, 452 269 M 450.029 275.961 C 449.220 276.473, 448.803 277.136, 449.102 277.435 C 449.401 277.735, 450.513 277.323, 451.573 276.521 C 453.681 274.926, 452.400 274.461, 450.029 275.961 M 445.250 279.662 C 444.563 279.940, 444 280.642, 444 281.223 C 444 281.804, 443.212 282.893, 442.250 283.642 C 440.681 284.864, 440.675 284.944, 442.190 284.418 C 443.489 283.968, 447.986 278.728, 446.773 279.079 C 446.623 279.122, 445.938 279.385, 445.250 279.662 M 79 288 C 79 289.289, 79.506 289.998, 80.250 289.750 C 80.938 289.521, 81.500 288.733, 81.500 288 C 81.500 287.267, 80.938 286.479, 80.250 286.250 C 79.506 286.002, 79 286.711, 79 288 M 425 289.622 C 425 290.951, 425.271 291.020, 426.500 290 C 427.325 289.315, 428 288.585, 428 288.378 C 428 288.170, 427.325 288, 426.500 288 C 425.675 288, 425 288.730, 425 289.622 M 84.190 296.914 C 84.421 297.692, 85.710 299.015, 87.055 299.853 C 88.950 301.034, 89.163 301.053, 88 299.938 C 87.175 299.147, 85.886 297.825, 85.135 297 C 84.036 295.792, 83.852 295.776, 84.190 296.914 M 419.489 302.575 C 417.295 304.541, 416.400 305.708, 417.500 305.167 C 419.394 304.236, 424.839 299, 423.913 299 C 423.674 299, 421.683 300.609, 419.489 302.575 M 409.459 304.067 C 409.096 304.653, 409.040 305.373, 409.333 305.667 C 410.050 306.383, 412 305.121, 412 303.941 C 412 302.663, 410.274 302.748, 409.459 304.067 M 402.835 316.673 C 401.919 316.915, 400.921 317.765, 400.615 318.560 C 400.164 319.736, 400.522 319.704, 402.530 318.388 C 403.889 317.498, 405 316.597, 405 316.385 C 405 316.173, 404.887 316.052, 404.750 316.116 C 404.613 316.180, 403.751 316.430, 402.835 316.673 M 393 319.500 C 393 320.325, 393.450 321, 394 321 C 394.550 321, 395 320.325, 395 319.500 C 395 318.675, 394.550 318, 394 318 C 393.450 318, 393 318.675, 393 319.500 M 114.405 322.854 C 116.521 325.238, 117 325.456, 117 324.035 C 117 323.505, 115.987 322.539, 114.750 321.890 C 112.512 320.715, 112.510 320.720, 114.405 322.854 M 122.652 329.413 C 124.218 331.291, 126.175 333.117, 127 333.472 C 127.825 333.827, 126.721 332.291, 124.547 330.059 C 119.726 325.108, 118.794 324.791, 122.652 329.413 M 377.500 333 C 377.160 333.550, 377.809 334, 378.941 334 C 380.073 334, 381 333.550, 381 333 C 381 332.450, 380.352 332, 379.559 332 C 378.766 332, 377.840 332.450, 377.500 333 M 138 336.417 C 138 337.288, 138.713 338, 139.583 338 C 141.349 338, 141.042 335.847, 139.188 335.229 C 138.534 335.011, 138 335.546, 138 336.417 M 131 337.376 C 131 337.610, 132.602 338.748, 134.560 339.903 C 136.518 341.058, 137.840 341.549, 137.497 340.995 C 136.827 339.911, 131 336.665, 131 337.376 M 147 348.441 C 147 349.234, 147.450 350.160, 148 350.500 C 148.550 350.840, 149 350.191, 149 349.059 C 149 347.927, 148.550 347, 148 347 C 147.450 347, 147 347.648, 147 348.441 M 365.250 352.732 C 363.730 355.974, 363.672 358.992, 365.090 361 C 365.876 362.113, 365.986 361.513, 365.515 358.674 C 365.127 356.335, 365.329 354.308, 366.035 353.458 C 366.670 352.693, 367.034 351.617, 366.845 351.066 C 366.655 350.516, 365.938 351.265, 365.250 352.732 M 144.181 365.179 C 143.481 367.556, 142.646 370.125, 142.324 370.889 C 141.967 371.740, 142.168 372.014, 142.843 371.597 C 144.067 370.841, 146.307 363.421, 145.785 361.855 C 145.602 361.307, 144.880 362.803, 144.181 365.179 M 141.389 375.948 C 141.679 377.294, 141.430 378.982, 140.836 379.698 C 140.004 380.700, 140.260 381, 141.945 381 C 143.753 381, 144.015 380.608, 143.446 378.750 C 142.353 375.176, 140.754 372.999, 141.389 375.948 M 364.667 376.667 C 363.449 377.885, 363.978 380, 365.500 380 C 366.333 380, 367 379.111, 367 378 C 367 376.008, 365.934 375.399, 364.667 376.667 M 237.768 379.725 C 239.565 379.947, 242.265 379.943, 243.768 379.715 C 245.271 379.486, 243.800 379.304, 240.500 379.310 C 237.200 379.315, 235.971 379.502, 237.768 379.725 M 266.083 379.363 C 266.313 379.562, 270.325 379.970, 275 380.270 C 280.933 380.649, 282.292 380.557, 279.500 379.965 C 275.540 379.124, 265.280 378.663, 266.083 379.363 M 220.768 381.725 C 222.565 381.947, 225.265 381.943, 226.768 381.715 C 228.271 381.486, 226.800 381.304, 223.500 381.310 C 220.200 381.315, 218.971 381.502, 220.768 381.725 M 290.500 382.046 C 293.250 382.474, 297.075 382.804, 299 382.779 C 301.831 382.742, 301.545 382.584, 297.500 381.954 C 294.750 381.526, 290.925 381.196, 289 381.221 C 286.169 381.258, 286.455 381.416, 290.500 382.046 M 165 383 C 165 383.550, 166.800 384, 169 384 C 171.200 384, 173 383.550, 173 383 C 173 382.450, 171.200 382, 169 382 C 166.800 382, 165 382.450, 165 383 M 306.500 383.977 C 308.700 384.394, 312.750 385.007, 315.500 385.340 C 320.209 385.910, 320.354 385.862, 318 384.508 C 316.480 383.634, 312.953 383.100, 309 383.145 C 303.098 383.212, 302.868 383.289, 306.500 383.977 M 193.250 384.716 C 194.762 384.945, 197.238 384.945, 198.750 384.716 C 200.262 384.487, 199.025 384.300, 196 384.300 C 192.975 384.300, 191.738 384.487, 193.250 384.716 M 372 385 C 372 385.550, 370.848 386, 369.441 386 C 367.990 386, 367.149 386.433, 367.500 387 C 368.662 388.881, 372.564 388.134, 372.725 386 C 372.808 384.900, 372.679 384, 372.438 384 C 372.197 384, 372 384.450, 372 385 M 180 386.019 C 178.945 386.715, 179.688 386.830, 182.500 386.409 C 184.700 386.079, 186.688 385.627, 186.917 385.405 C 187.824 384.523, 181.404 385.094, 180 386.019 M 324.500 386 C 326.150 386.420, 328.850 386.785, 330.500 386.811 C 333.041 386.852, 333.194 386.728, 331.500 386 C 330.400 385.527, 327.700 385.162, 325.500 385.189 C 321.677 385.235, 321.633 385.270, 324.500 386 M 138.136 388.275 L 138 391.050 147.250 390.437 C 157.124 389.783, 161.069 388.715, 152.098 389.125 C 148.032 389.310, 146.447 388.964, 145.511 387.685 C 143.875 385.447, 143 385.557, 143 388 C 143 390.880, 139.267 390.663, 138.706 387.750 C 138.337 385.838, 138.252 385.917, 138.136 388.275 M 164.500 388 L 159.500 388.686 164 388.725 C 166.475 388.746, 169.850 388.420, 171.500 388 C 174.133 387.330, 174.194 387.241, 172 387.275 C 170.625 387.297, 167.250 387.623, 164.500 388 M 341.500 388.046 C 344.250 388.474, 347.850 388.833, 349.500 388.842 C 352.052 388.857, 352.201 388.731, 350.500 388 C 349.400 387.527, 345.800 387.169, 342.500 387.204 L 336.500 387.267 341.500 388.046 M 257.689 390.289 C 256.692 391.298, 256.017 392.740, 256.189 393.494 C 256.687 395.688, 260.235 392.584, 259.830 390.309 C 259.510 388.511, 259.445 388.510, 257.689 390.289 M 251.675 399.503 C 251.311 403.351, 251.076 409.425, 251.151 413 C 251.245 417.477, 251.552 415.610, 252.136 407 C 253.060 393.401, 252.741 388.213, 251.675 399.503 M 260.248 427 C 260.320 444.325, 260.646 460.525, 260.973 463 C 261.301 465.475, 261.405 451.750, 261.206 432.500 C 261.007 413.250, 260.681 397.050, 260.482 396.500 C 260.282 395.950, 260.177 409.675, 260.248 427 M 256.751 424.524 C 256.485 425.912, 256.658 427.289, 257.134 427.583 C 257.610 427.877, 258 426.741, 258 425.059 C 258 421.347, 257.407 421.092, 256.751 424.524 M 250.349 436 C 250.349 440.675, 250.522 442.587, 250.732 440.250 C 250.943 437.913, 250.943 434.087, 250.732 431.750 C 250.522 429.413, 250.349 431.325, 250.349 436 M 249.349 460 C 249.349 464.675, 249.522 466.587, 249.732 464.250 C 249.943 461.913, 249.943 458.087, 249.732 455.750 C 249.522 453.413, 249.349 455.325, 249.349 460 M 248.252 479.500 C 248.263 481.700, 248.468 482.482, 248.707 481.238 C 248.946 479.994, 248.937 478.194, 248.687 477.238 C 248.437 476.282, 248.241 477.300, 248.252 479.500 M 260.622 476.802 C 260.350 477.243, 260.489 480.730, 260.932 484.552 L 261.737 491.500 261.869 483.750 C 261.994 476.378, 261.744 474.987, 260.622 476.802 M 247.624 493.539 C 247.281 494.432, 247.039 495.914, 247.086 496.832 C 247.133 497.749, 247.568 497.173, 248.053 495.550 C 248.996 492.394, 248.662 490.832, 247.624 493.539 M 249.333 501.840 L 249.333 505 255.060 505 C 259.593 505, 260.925 504.635, 261.452 503.250 C 261.986 501.847, 261.869 501.748, 260.859 502.750 C 258.620 504.973, 253.771 504.246, 251.454 501.340 L 249.333 498.680 249.333 501.840" stroke="none" fill="#fb0404" fill-rule="evenodd"/></svg>